<svg width="65" height="56" viewBox="0 0 65 56" fill="none" xmlns="http://www.w3.org/2000/svg">
<g clip-path="url(#clip0_2_2)">
<path fill-rule="evenodd" clip-rule="evenodd" d="M33.133 0.229756C34.0493 0.556252 34.6884 1.02786 35.2309 1.81386C36.1593 3.14403 36.2317 4.66767 35.4359 6.15504C34.9898 7.00151 34.3869 7.58195 33.4947 8.05355C32.916 8.35586 32.7351 8.38005 31.5897 8.39214C30.4925 8.39214 30.2513 8.35586 29.8052 8.11401C27.647 6.96523 26.8633 4.4742 27.9605 2.29756C28.913 0.435328 31.1556 -0.459512 33.133 0.229756ZM42.2603 4.4621C43.4539 4.60721 45.9015 4.90952 47.686 5.13928C49.4825 5.36904 51.3996 5.61088 51.9662 5.68344C52.5209 5.7439 53.0032 5.82855 53.0393 5.85273C53.1358 5.94947 52.7982 6.91686 52.4124 7.64241C51.9662 8.50097 51.3152 9.08141 50.5435 9.32326C50.0371 9.49255 49.7598 9.49255 48.0477 9.34744C43.3936 8.9363 41.8744 8.81538 41.3801 8.81538C40.9099 8.81538 40.8616 8.83956 40.8978 9.08141C40.9219 9.28698 41.1631 9.48046 41.8383 9.81905C42.7787 10.2906 46.1185 11.645 46.6973 11.778C46.8781 11.8264 47.0228 11.911 47.0228 11.9715C47.0228 12.1287 45.8653 13.084 45.0696 13.5677C44.1894 14.0998 43.1284 14.4504 42.212 14.5109L41.5609 14.5593L41.368 13.9547C40.8255 12.2859 39.4389 11.0767 37.4736 10.5446C37.0636 10.4358 36.6899 10.3269 36.6657 10.3148C36.6416 10.2907 36.9792 9.8916 37.4012 9.43209C38.6311 8.10192 39.2701 6.68711 39.4871 4.80069C39.5715 4.17189 39.5956 4.11142 39.8368 4.15979C39.9694 4.18398 41.0666 4.32909 42.2603 4.4621ZM24.3313 7.08616C24.5724 8.39214 25.32 9.79486 26.2604 10.7381C26.7066 11.1734 27.2612 11.645 27.5023 11.7659L27.9484 11.9957L26.7186 12.6003C24.8015 13.5435 23.3908 15.1034 22.8 16.9294C22.6312 17.4615 22.4745 17.5219 21.1482 17.5219C20.1113 17.5219 19.2191 17.3043 18.3268 16.8568C17.736 16.5545 16.9041 15.8894 17.0006 15.7927C17.0367 15.7685 17.8446 15.2969 18.8091 14.7407C20.6659 13.6765 23.0653 12.1771 23.427 11.8627C23.6682 11.645 23.6682 11.5966 23.4752 11.3306C23.3306 11.1492 22.993 11.2218 19.3396 12.2738C17.1573 12.9147 15.1076 13.5072 14.77 13.604C13.504 13.9547 12.7806 13.7733 11.9607 12.8784C11.4181 12.2859 10.7911 11.0887 10.8876 10.8348C10.9117 10.7502 12.5032 10.1576 14.4203 9.50464C16.3374 8.85165 19.207 7.87217 20.7986 7.31591C22.3901 6.74757 23.8008 6.28806 23.9334 6.28806C24.1384 6.27597 24.1987 6.39689 24.3313 7.08616ZM32.916 10.9557V12.1045L33.2536 12.0441C33.4344 12.0078 34.0252 11.8869 34.5678 11.7659C36.931 11.2339 39.1254 12.2254 40.0779 14.2449C40.4155 14.9704 40.4517 15.1518 40.4517 16.1918C40.4517 17.2317 40.4155 17.4131 40.09 18.0661C39.8368 18.586 39.6439 18.8158 39.4268 18.8763C38.9687 18.9972 34.6763 19.9404 34.5799 19.9404C34.5196 19.9404 34.4834 19.7348 34.4834 19.4688C34.4834 19.0335 34.5437 18.9609 35.1827 18.4893C36.1593 17.7759 36.4728 17.2801 36.4728 16.482C36.4728 15.7685 36.2317 15.3453 35.5685 14.8858C35.243 14.6681 35.0019 14.6197 34.2423 14.6197C32.5784 14.6197 29.8655 15.5025 28.696 16.4336C28.1896 16.8447 27.6108 17.8726 27.6108 18.3805C27.6108 19.0939 28.1052 19.7711 28.8407 20.0734C29.1662 20.2064 29.1903 20.2669 29.1541 20.7627L29.118 21.3068L27.0683 21.8752L25.0186 22.4556L24.7895 22.1896C24.6689 22.0566 24.3916 21.585 24.1866 21.1496C23.837 20.412 23.8128 20.279 23.8128 19.0214C23.8128 17.6912 23.8128 17.6791 24.3192 16.6513C25.2235 14.8374 26.5016 13.8942 29.2988 13.0235L30.5648 12.6245L30.601 11.2339L30.6372 9.84323L31.7705 9.81905L32.916 9.79486V10.9557ZM32.916 18.2475V20.412L32.4699 20.545C30.9627 20.9562 30.6131 21.0166 30.5528 20.8473C30.5166 20.7627 30.5045 19.8195 30.5287 18.7433C30.5648 16.9536 30.5889 16.7843 30.818 16.5424C31.1074 16.2522 31.6379 16.1071 32.4096 16.0829L32.916 16.0708V18.2475ZM62.9141 19.0939C64.6021 19.8316 65.3858 22.0566 64.8071 24.5113C64.3369 26.4824 62.9021 28.0786 60.9367 28.78C59.924 29.1548 58.3686 29.1427 57.621 28.7679C56.2345 28.0665 55.5834 26.8694 55.5834 24.9346C55.5834 23.7374 55.7763 22.9272 56.2827 21.9357C57.609 19.3841 60.6233 18.0903 62.9141 19.0939ZM54.1365 21.6454C55.716 22.5161 55.7281 25.5997 54.1848 27.4256L53.7507 27.9214L54.5585 28.9613C55.0046 29.5297 55.3422 30.0134 55.3061 30.0497C55.1734 30.1948 52.6414 30.8236 52.5691 30.7389C52.5329 30.6906 52.2315 30.2673 51.918 29.8199C51.3996 29.0823 51.3031 28.9976 51.0378 29.0702C50.869 29.1065 50.5797 29.179 50.3868 29.2153L50.0371 29.2758V30.3278V31.3798L48.9278 31.6459C48.3129 31.791 47.7342 31.9119 47.6498 31.9119C47.5292 31.9119 47.5051 30.9082 47.5292 27.1112L47.5654 22.3226L47.8668 22.2259C48.0356 22.1775 48.8917 21.9719 49.7839 21.7543C52.5329 21.1134 53.1478 21.0892 54.1365 21.6454ZM45.4795 23.4472C46.7214 23.7979 47.4689 25.4183 47.1434 27.0145C46.7214 29.0581 45.371 30.3641 43.1887 30.8236C41.9709 31.0896 42.0914 30.9324 42.0553 32.19L42.0191 33.3025L41.0545 33.5686C40.524 33.7137 39.9694 33.8346 39.8127 33.8346L39.5474 33.8467L39.5715 29.1065L39.6077 24.3662L40.8134 24.0881C41.4765 23.9309 42.4291 23.7011 42.9234 23.5802C43.9482 23.3142 44.8284 23.2658 45.4795 23.4472ZM36.0267 25.5271L35.9905 26.6517L34.0011 27.1112C32.9039 27.3772 31.9393 27.607 31.8549 27.6312C31.7464 27.6675 31.7103 27.9093 31.7344 28.4897C31.7705 29.445 31.65 29.4088 33.338 28.9613C34.0011 28.7921 34.616 28.6469 34.7004 28.6469C34.8572 28.6469 34.9175 30.5334 34.7487 30.7752C34.7004 30.8599 34.0373 31.0654 33.2777 31.2468C32.5181 31.4282 31.8429 31.6217 31.7947 31.67C31.7464 31.7184 31.7103 32.0812 31.7344 32.4802L31.7705 33.2058L33.6394 32.7463C34.6643 32.4923 35.6288 32.2505 35.7856 32.2142C36.0629 32.1417 36.0629 32.1537 36.0267 33.3146L35.9905 34.4876L32.7713 35.2978L29.54 36.1201V31.005V25.8899L31.1436 25.515C34.1217 24.8016 35.7494 24.4267 35.9061 24.4267C36.0267 24.4146 36.0508 24.6806 36.0267 25.5271ZM26.4895 26.7726C27.1285 26.9661 28.3343 27.9214 28.3343 28.2358C28.3343 28.3204 27.9484 28.7195 27.4661 29.1185L26.598 29.8441L26.1399 29.4209C25.754 29.0823 25.5852 29.0097 25.1271 29.0097C24.2107 29.0097 23.6199 29.4571 23.1256 30.5213C22.8965 31.0292 22.8483 31.3315 22.8483 32.4561C22.8483 34.5601 23.3667 35.3945 24.5845 35.2736C25.3079 35.201 25.8264 34.8504 26.2363 34.1369L26.5498 33.6048L27.4903 34.1248L28.4428 34.6327L28.1172 35.2131C27.4059 36.5433 25.9228 37.5107 24.3675 37.6679C22.5348 37.8614 20.9191 36.5433 20.4489 34.4513C19.6772 31.0533 21.5582 27.4982 24.5363 26.7605C25.3562 26.555 25.7782 26.555 26.4895 26.7726ZM19.2673 33.3872L19.2311 38.6232L18.5077 38.8167C18.1098 38.9255 17.6034 39.0464 17.3864 39.0827L17.0006 39.1673L17.0247 33.8709L17.0608 28.5865L17.8446 28.3809C18.2786 28.2721 18.773 28.1874 18.9659 28.1753L19.2914 28.1632L19.2673 33.3872ZM13.8657 29.6264C14.6253 29.7836 15.192 30.2673 15.5658 31.0412C15.7948 31.5008 15.8431 31.8031 15.8431 32.6979C15.8431 34.0764 15.5175 34.9834 14.7579 35.7452C14.4686 36.0354 14.2274 36.3377 14.2395 36.4224C14.2395 36.4949 14.6132 37.2205 15.0594 38.0186C15.5175 38.8167 15.8551 39.5059 15.8069 39.5422C15.7707 39.5906 15.2161 39.7478 14.5891 39.8929C13.2508 40.1952 13.4678 40.3403 12.455 38.4539C11.8039 37.2326 11.7798 37.2084 11.4302 37.2809C11.2252 37.3172 10.984 37.3535 10.8996 37.3535C10.767 37.3535 10.7308 37.6921 10.7308 39.0464V40.7273L10.2244 40.8603C9.93508 40.9328 9.51308 41.0417 9.28399 41.1142C8.33148 41.3682 8.40382 41.864 8.50028 35.9266C8.54851 33.0244 8.60879 30.6301 8.62085 30.6059C8.65702 30.5575 12.0933 29.6748 12.5635 29.5781C13.0579 29.4813 13.2387 29.4934 13.8657 29.6264ZM6.13708 31.7184C6.69171 32.0086 7.21017 32.71 7.42719 33.4476C7.70451 34.415 7.60805 35.8903 7.19811 36.7851C6.54702 38.212 5.46188 38.9981 3.40011 39.5301L2.29086 39.8203V41.2835V42.7467L1.36246 42.9644C0.843999 43.0853 0.325543 43.2062 0.217028 43.2304C0.0120571 43.2909 0 42.9886 0 37.9702C0 35.0317 0.0361714 32.6374 0.0964571 32.6374C0.144686 32.6374 1.10926 32.3835 2.23057 32.0933C4.43702 31.5128 5.53422 31.4161 6.13708 31.7184ZM35.026 38.4902C36.3161 38.8288 37.1239 39.4213 37.5821 40.3524C37.8715 40.9328 37.9197 41.1989 37.9197 42.0091C37.9197 42.8555 37.8715 43.0732 37.5218 43.7867C36.8828 45.1047 35.665 46.1568 33.1571 47.5716C30.3357 49.1678 29.2868 50.2319 28.9853 51.816C28.9009 52.2513 28.8889 52.2634 28.8045 51.9853C28.7563 51.816 28.7201 51.2719 28.708 50.7761C28.6839 49.1557 29.3953 48.2246 32.072 46.3623C34.399 44.742 35.0983 43.7504 34.7245 42.6137C34.3869 41.5858 33.0727 41.4407 31.4088 42.2388C30.3478 42.7346 29.4194 43.569 29.0456 44.3308C28.6839 45.0805 28.7683 45.8907 29.2868 46.6284L29.6726 47.1725L29.2747 47.6079C29.0577 47.8618 28.7924 48.1883 28.6839 48.3576C28.5151 48.6236 28.4548 48.6357 28.1896 48.5148C27.6591 48.2729 26.4292 47.0395 26.1519 46.4591C25.959 46.0721 25.8867 45.6852 25.8867 45.1047C25.8746 42.8676 27.2732 41.4165 31.1315 39.6873C32.4096 39.119 32.6748 38.9497 32.6748 38.732C32.6748 38.599 32.711 38.4418 32.7592 38.4055C32.8919 38.2604 34.399 38.3209 35.026 38.4902ZM32.6989 43.1216C32.8677 45.0322 32.8436 45.0684 31.7705 45.8061C31.2762 46.1447 30.818 46.4228 30.7457 46.4228C30.5889 46.4228 30.5889 44.0648 30.7457 43.7504C30.9145 43.4481 31.9152 42.9281 32.3493 42.916C32.5784 42.916 32.6748 42.9765 32.6989 43.1216ZM32.5301 51.5863C32.4819 53.5694 32.4337 53.9927 32.1684 54.8633C31.9996 55.4196 31.8067 55.9274 31.7464 55.9879C31.662 56.0726 31.5173 55.8186 31.3124 55.2261C30.8783 54.0168 30.7457 53.1462 30.7457 51.5379C30.7457 50.2077 30.7577 50.1473 31.0592 49.8691C31.4812 49.4701 32.3372 49.0589 32.4699 49.192C32.5301 49.2524 32.5543 50.3287 32.5301 51.5863ZM61.5637 21.452C62.4318 21.8389 62.8418 22.9877 62.5404 24.2574C62.2992 25.2732 61.5517 26.1075 60.5389 26.4703C60.0204 26.6638 59.2126 26.6638 58.8268 26.4582C58.1033 26.0954 57.7778 25.4787 57.7778 24.4751C57.7778 23.8583 57.8742 23.4351 58.1395 22.9272C58.8147 21.5971 60.3701 20.932 61.5637 21.452ZM52.7861 22.637C53.6542 23.024 54.0642 24.1727 53.7628 25.4425C53.5216 26.4582 52.7741 27.2926 51.7613 27.6554C51.2428 27.8488 50.435 27.8488 50.0492 27.6433C49.3257 27.2805 49.0002 26.6638 49.0002 25.6601C49.0002 25.0434 49.0966 24.6202 49.3619 24.1123C50.0371 22.7821 51.6045 22.117 52.7861 22.637ZM13.504 31.1743C14.3721 31.5612 14.782 32.71 14.4806 33.9797C14.2395 34.9955 13.4919 35.8298 12.4791 36.1926C11.9607 36.3861 11.1528 36.3861 10.767 36.1805C10.0436 35.8177 9.71805 35.201 9.71805 34.1974C9.71805 33.5806 9.81451 33.1574 10.0798 32.6495C10.755 31.3315 12.3224 30.6543 13.504 31.1743ZM44.5029 24.3662C45.371 24.7532 45.7809 25.902 45.4795 27.1717C45.2384 28.1874 44.4908 29.0218 43.478 29.3846C42.9596 29.5781 42.1517 29.5781 41.7659 29.3725C41.0425 29.0097 40.7169 28.393 40.7169 27.3893C40.7169 26.7726 40.8134 26.3494 41.0787 25.8415C41.7539 24.5113 43.3092 23.8463 44.5029 24.3662ZM5.1484 32.8914C6.01651 33.2783 6.42645 34.4271 6.12502 35.6968C5.88388 36.7126 5.13634 37.547 4.12354 37.9097C3.60508 38.1032 2.79725 38.1032 2.41143 37.8976C1.688 37.5349 1.36246 36.9182 1.36246 35.9145C1.36246 35.2978 1.45891 34.8745 1.72417 34.3667C2.39937 33.0486 3.9668 32.3714 5.1484 32.8914Z" fill="white"/>
</g>
<defs>
<clipPath id="clip0_2_2">
<rect width="65" height="56" fill="white"/>
</clipPath>
</defs>
</svg>
